<?xml version="1.0" standalone="no"?>
<!DOCTYPE svg PUBLIC "-//W3C//DTD SVG 20010904//EN"
 "http://www.w3.org/TR/2001/REC-SVG-20010904/DTD/svg10.dtd">
<svg version="1.0" xmlns="http://www.w3.org/2000/svg"
 width="1119.000000pt" height="1280.000000pt" viewBox="0 0 1119.000000 1280.000000"
 preserveAspectRatio="xMidYMid meet">
<metadata>
Created by potrace 1.15, written by Peter Selinger 2001-2017
</metadata>
<g transform="translate(0.000000,1280.000000) scale(0.100000,-0.100000)"
fill="#000000" stroke="none">
<path d="M5491 12784 c-227 -61 -468 -365 -661 -835 -251 -611 -489 -1774
-605 -2959 -9 -91 -17 -168 -18 -171 -1 -4 -60 20 -132 53 -693 317 -1575 647
-2165 812 -1241 345 -1975 201 -1903 -373 65 -511 747 -1306 1938 -2257 200
-160 481 -373 690 -523 94 -68 171 -126 173 -130 1 -4 -41 -39 -95 -77 -192
-135 -614 -455 -834 -631 -1086 -872 -1679 -1538 -1846 -2071 -23 -73 -27
-106 -28 -202 0 -114 1 -117 38 -192 85 -173 259 -260 575 -289 325 -29 869
59 1487 242 579 171 1204 408 1929 733 93 42 170 75 172 73 1 -1 9 -78 18
-172 92 -927 267 -1906 454 -2530 158 -527 360 -920 583 -1129 171 -161 344
-195 528 -105 90 45 238 192 320 319 375 580 668 1725 841 3287 16 150 30 286
30 303 0 16 2 30 4 30 2 0 76 -32 163 -71 994 -446 1908 -764 2585 -900 271
-54 410 -70 638 -76 239 -6 356 6 488 51 325 110 414 384 248 762 -201 458
-617 935 -1402 1609 -355 304 -870 708 -1226 959 -54 38 -98 72 -98 75 1 3 33
29 72 56 626 439 1313 1005 1786 1470 506 497 803 899 913 1236 30 93 34 116
34 219 0 114 -1 117 -38 192 -88 180 -267 264 -610 289 -436 32 -1024 -85
-1857 -370 -482 -165 -984 -364 -1511 -602 -97 -43 -179 -79 -183 -79 -3 0 -6
14 -6 30 0 17 -14 153 -30 303 -173 1562 -466 2707 -841 3287 -71 111 -228
271 -305 312 -103 55 -210 70 -313 42z m93 -254 c214 -103 440 -540 621 -1200
177 -649 329 -1575 404 -2475 6 -71 14 -149 17 -173 l5 -43 -153 -73 c-139
-67 -733 -371 -835 -427 -34 -19 -46 -22 -61 -13 -62 39 -639 333 -920 470
-183 89 -335 164 -338 167 -12 12 71 770 126 1152 136 940 331 1689 575 2201
113 239 235 383 365 431 50 19 136 11 194 -17z m-4574 -2785 c749 -80 1773
-412 2993 -972 l187 -86 0 -36 c0 -20 -9 -148 -19 -286 -11 -137 -27 -407 -36
-600 -9 -192 -19 -387 -21 -431 l-6 -82 -86 -53 c-136 -82 -551 -351 -721
-466 l-153 -104 -42 27 c-173 114 -738 530 -1001 738 -987 780 -1627 1465
-1774 1899 -31 90 -38 192 -17 254 36 109 153 178 346 207 61 9 226 5 350 -9z
m9620 -10 c247 -66 319 -216 225 -470 -180 -484 -921 -1240 -2055 -2097 -264
-199 -702 -515 -736 -530 -18 -8 -45 7 -175 95 -170 115 -585 384 -721 466
l-86 53 -6 121 c-3 67 -13 264 -22 437 -8 173 -24 428 -34 565 -11 138 -20
264 -20 281 0 30 3 32 188 117 330 151 865 376 1142 479 394 146 554 199 860
287 431 123 700 176 1085 215 76 8 300 -4 355 -19z m-5860 -1330 c230 -115
673 -345 683 -355 5 -4 -22 -25 -60 -46 -349 -193 -1040 -593 -1115 -645 -14
-11 -29 -19 -32 -19 -10 0 -7 160 9 466 17 329 43 744 51 791 l5 31 142 -67
c78 -38 221 -108 317 -156z m1873 38 c10 -110 55 -953 51 -953 -1 0 -95 55
-210 123 -115 68 -316 184 -446 258 -131 74 -254 144 -274 155 l-36 22 135 71
c183 97 761 391 768 391 3 0 9 -30 12 -67z m-1000 -494 c123 -63 1023 -578
1055 -605 10 -7 21 -935 15 -1239 l-6 -350 -141 -85 c-176 -105 -657 -382
-833 -479 l-133 -73 -87 48 c-310 167 -1269 734 -1285 758 -10 14 -10 701 -1
1024 l6 242 246 147 c424 252 449 267 741 430 309 174 361 202 373 203 4 0 27
-10 50 -21z m-1541 -1396 l-4 -552 -76 48 c-120 76 -619 402 -700 458 l-72 51
212 140 c256 167 642 414 643 409 0 -1 -1 -250 -3 -554z m3233 399 c333 -212
605 -394 600 -402 -6 -9 -444 -301 -695 -463 l-145 -94 -2 41 c-2 23 -4 274
-5 558 l-3 517 35 -22 c19 -11 116 -72 215 -135z m-4257 -735 c200 -138 632
-422 847 -557 99 -62 181 -114 183 -115 2 -2 8 -108 13 -237 8 -214 29 -594
45 -828 l7 -96 -94 -43 c-1262 -582 -2128 -890 -2934 -1040 -205 -39 -582 -51
-695 -22 -244 62 -323 190 -259 421 97 352 705 1043 1489 1691 428 354 1220
946 1245 931 6 -3 74 -50 153 -105z m5362 -7 c452 -318 1025 -768 1370 -1075
186 -165 530 -504 664 -655 379 -424 546 -703 546 -910 0 -173 -103 -264 -342
-301 -93 -15 -407 -5 -540 16 -538 85 -1167 273 -1928 577 -345 138 -916 387
-1142 499 -55 27 -53 16 -38 199 8 100 15 232 46 865 l6 120 191 120 c183 114
800 522 937 618 l64 46 31 -23 c16 -12 77 -56 135 -96z m-3971 -885 c118 -70
330 -194 472 -275 l259 -148 -133 -70 c-72 -38 -277 -142 -454 -231 l-322
-160 -6 42 c-19 138 -53 983 -39 975 5 -3 105 -63 223 -133z m2224 -72 c-1
-32 -10 -200 -19 -373 -9 -173 -17 -316 -18 -317 -2 -2 -629 315 -654 331 -9
5 19 26 90 65 57 32 216 124 353 204 138 81 250 147 251 147 0 0 -1 -26 -3
-57z m-888 -679 c110 -58 341 -175 513 -261 l313 -156 -5 -41 c-3 -23 -11 -99
-17 -171 -75 -900 -227 -1826 -404 -2475 -181 -660 -406 -1095 -621 -1201 -74
-36 -172 -34 -239 5 -119 70 -218 196 -320 409 -239 498 -440 1265 -575 2202
-51 354 -139 1150 -128 1159 1 2 77 38 168 81 219 103 669 329 905 454 105 55
195 101 200 101 6 0 100 -48 210 -106z"/>
<path d="M5435 6981 c-108 -31 -175 -71 -261 -156 -131 -130 -192 -285 -181
-460 24 -351 322 -599 675 -563 342 36 590 380 518 718 -26 122 -76 212 -170
305 -87 86 -164 131 -273 159 -81 21 -230 20 -308 -3z"/>
</g>
</svg>
